<mxfile host="app.diagrams.net" modified="2022-11-29T11:10:39.524Z" agent="5.0 (Windows NT 10.0; Win64; x64) AppleWebKit/537.36 (KHTML, like Gecko) Chrome/107.0.0.0 Safari/537.36" version="20.6.0" etag="-OG_ZIgnVw9w75Mopn01" type="github">
  <diagram id="kKEVOZZQ7LtOsM97M05r" name="Page-1">
    <mxGraphModel dx="1085" dy="593" grid="1" gridSize="10" guides="1" tooltips="1" connect="1" arrows="1" fold="1" page="1" pageScale="1" pageWidth="850" pageHeight="1100" math="0" shadow="0">
      <root>
        <mxCell id="0" />
        <mxCell id="1" parent="0" />
        <mxCell id="3Hw0FjDdcK-63apDBKU5-4" value="" style="edgeStyle=orthogonalEdgeStyle;rounded=0;orthogonalLoop=1;jettySize=auto;html=1;" edge="1" parent="1" source="3Hw0FjDdcK-63apDBKU5-2" target="3Hw0FjDdcK-63apDBKU5-3">
          <mxGeometry relative="1" as="geometry" />
        </mxCell>
        <mxCell id="3Hw0FjDdcK-63apDBKU5-2" value="เริ่ม" style="strokeWidth=2;html=1;shape=mxgraph.flowchart.terminator;whiteSpace=wrap;fillColor=#dae8fc;strokeColor=#6c8ebf;" vertex="1" parent="1">
          <mxGeometry x="370" y="40" width="100" height="60" as="geometry" />
        </mxCell>
        <mxCell id="3Hw0FjDdcK-63apDBKU5-6" value="" style="edgeStyle=orthogonalEdgeStyle;rounded=0;orthogonalLoop=1;jettySize=auto;html=1;" edge="1" parent="1" source="3Hw0FjDdcK-63apDBKU5-3">
          <mxGeometry relative="1" as="geometry">
            <mxPoint x="420" y="320" as="targetPoint" />
          </mxGeometry>
        </mxCell>
        <mxCell id="3Hw0FjDdcK-63apDBKU5-3" value="เริ่มเล่น" style="rounded=1;whiteSpace=wrap;html=1;strokeWidth=2;fillColor=#f8cecc;strokeColor=#b85450;" vertex="1" parent="1">
          <mxGeometry x="360" y="180" width="120" height="60" as="geometry" />
        </mxCell>
        <mxCell id="3Hw0FjDdcK-63apDBKU5-8" value="" style="edgeStyle=orthogonalEdgeStyle;rounded=0;orthogonalLoop=1;jettySize=auto;html=1;" edge="1" parent="1" target="3Hw0FjDdcK-63apDBKU5-7">
          <mxGeometry relative="1" as="geometry">
            <mxPoint x="420" y="380" as="sourcePoint" />
          </mxGeometry>
        </mxCell>
        <mxCell id="3Hw0FjDdcK-63apDBKU5-11" value="" style="edgeStyle=orthogonalEdgeStyle;rounded=0;orthogonalLoop=1;jettySize=auto;html=1;" edge="1" parent="1" source="3Hw0FjDdcK-63apDBKU5-7" target="3Hw0FjDdcK-63apDBKU5-10">
          <mxGeometry relative="1" as="geometry" />
        </mxCell>
        <mxCell id="3Hw0FjDdcK-63apDBKU5-7" value="รับข้อมูล" style="strokeWidth=2;html=1;shape=mxgraph.flowchart.start_1;whiteSpace=wrap;fillColor=#e3c800;fontColor=#000000;strokeColor=#B09500;" vertex="1" parent="1">
          <mxGeometry x="370" y="460" width="100" height="60" as="geometry" />
        </mxCell>
        <mxCell id="3Hw0FjDdcK-63apDBKU5-9" value="เเสดงกติกา" style="strokeWidth=2;html=1;shape=mxgraph.flowchart.terminator;whiteSpace=wrap;fillColor=#fff2cc;strokeColor=#d6b656;" vertex="1" parent="1">
          <mxGeometry x="370" y="320" width="100" height="60" as="geometry" />
        </mxCell>
        <mxCell id="3Hw0FjDdcK-63apDBKU5-15" value="" style="edgeStyle=orthogonalEdgeStyle;rounded=0;orthogonalLoop=1;jettySize=auto;html=1;" edge="1" parent="1" source="3Hw0FjDdcK-63apDBKU5-10" target="3Hw0FjDdcK-63apDBKU5-14">
          <mxGeometry relative="1" as="geometry" />
        </mxCell>
        <mxCell id="3Hw0FjDdcK-63apDBKU5-17" value="" style="edgeStyle=orthogonalEdgeStyle;rounded=0;orthogonalLoop=1;jettySize=auto;html=1;" edge="1" parent="1" source="3Hw0FjDdcK-63apDBKU5-10" target="3Hw0FjDdcK-63apDBKU5-16">
          <mxGeometry relative="1" as="geometry" />
        </mxCell>
        <mxCell id="3Hw0FjDdcK-63apDBKU5-10" value="ประมวลผลว่าคะเเนน=10" style="rhombus;whiteSpace=wrap;html=1;strokeWidth=2;fillColor=#d5e8d4;gradientColor=#97d077;strokeColor=#82b366;" vertex="1" parent="1">
          <mxGeometry x="290" y="590" width="260" height="80" as="geometry" />
        </mxCell>
        <mxCell id="3Hw0FjDdcK-63apDBKU5-14" value="เเพ้" style="shape=document;whiteSpace=wrap;html=1;boundedLbl=1;strokeWidth=2;fillColor=#dae8fc;gradientColor=#7ea6e0;strokeColor=#6c8ebf;" vertex="1" parent="1">
          <mxGeometry x="700" y="590" width="120" height="80" as="geometry" />
        </mxCell>
        <mxCell id="3Hw0FjDdcK-63apDBKU5-19" value="" style="edgeStyle=orthogonalEdgeStyle;rounded=0;orthogonalLoop=1;jettySize=auto;html=1;" edge="1" parent="1" source="3Hw0FjDdcK-63apDBKU5-16" target="3Hw0FjDdcK-63apDBKU5-18">
          <mxGeometry relative="1" as="geometry" />
        </mxCell>
        <mxCell id="3Hw0FjDdcK-63apDBKU5-16" value="ชนะ" style="shape=document;whiteSpace=wrap;html=1;boundedLbl=1;strokeWidth=2;fillColor=#f8cecc;gradientColor=#ea6b66;strokeColor=#b85450;" vertex="1" parent="1">
          <mxGeometry x="20" y="590" width="120" height="80" as="geometry" />
        </mxCell>
        <mxCell id="3Hw0FjDdcK-63apDBKU5-18" value="จบเกมส์" style="rounded=1;whiteSpace=wrap;html=1;strokeWidth=2;fillColor=#f5f5f5;gradientColor=#b3b3b3;strokeColor=#666666;" vertex="1" parent="1">
          <mxGeometry x="20" y="440" width="120" height="60" as="geometry" />
        </mxCell>
        <mxCell id="3Hw0FjDdcK-63apDBKU5-22" value="" style="endArrow=classic;html=1;rounded=0;" edge="1" parent="1">
          <mxGeometry width="50" height="50" relative="1" as="geometry">
            <mxPoint x="760" y="480" as="sourcePoint" />
            <mxPoint x="480" y="480" as="targetPoint" />
          </mxGeometry>
        </mxCell>
        <mxCell id="3Hw0FjDdcK-63apDBKU5-23" value="" style="endArrow=none;html=1;rounded=0;" edge="1" parent="1">
          <mxGeometry width="50" height="50" relative="1" as="geometry">
            <mxPoint x="760" y="580" as="sourcePoint" />
            <mxPoint x="760" y="480" as="targetPoint" />
          </mxGeometry>
        </mxCell>
        <mxCell id="3Hw0FjDdcK-63apDBKU5-24" value="ได้10" style="text;html=1;strokeColor=none;fillColor=none;align=center;verticalAlign=middle;whiteSpace=wrap;rounded=0;" vertex="1" parent="1">
          <mxGeometry x="180" y="590" width="60" height="30" as="geometry" />
        </mxCell>
        <mxCell id="3Hw0FjDdcK-63apDBKU5-25" value="ไม่ถึง10" style="text;html=1;strokeColor=none;fillColor=none;align=center;verticalAlign=middle;whiteSpace=wrap;rounded=0;" vertex="1" parent="1">
          <mxGeometry x="600" y="590" width="60" height="30" as="geometry" />
        </mxCell>
      </root>
    </mxGraphModel>
  </diagram>
</mxfile>
